<svg xmlns="http://www.w3.org/2000/svg" viewBox="0 0 420 300" font-family="inherit">
  <defs>
    <marker id="k5f-txt" viewBox="0 0 10 10" refX="8" refY="5" markerWidth="6" markerHeight="6" orient="auto"><path d="M0 0L10 5L0 10z" fill="var(--text)"/></marker>
  </defs>
  <line x1="55" y1="250" x2="405" y2="250" stroke="var(--text)" stroke-width="2" marker-end="url(#k5f-txt)"/>
  <line x1="55" y1="250" x2="55" y2="30" stroke="var(--text)" stroke-width="2" marker-end="url(#k5f-txt)"/>
  <text x="395" y="270" fill="var(--text)" font-size="13" text-anchor="end">Banqueo →</text>
  <text x="20" y="24" fill="var(--text)" font-size="13">G</text>
  <g fill="var(--muted)" font-size="11" text-anchor="middle">
    <text x="187" y="266">30°</text><text x="253" y="266">45°</text><text x="319" y="266">60°</text><text x="363" y="266">70°</text>
  </g>
  <g fill="var(--muted)" font-size="11" text-anchor="end">
    <text x="48" y="254">1</text><text x="48" y="187">2</text><text x="48" y="120">3</text><text x="48" y="53">4</text>
  </g>
  <path d="M55 250 C 120 248, 160 244, 187 240 C 215 236, 235 231, 253 223 C 280 211, 300 198, 319 183 C 337 168, 352 143, 363 121 C 372 103, 380 78, 385 58" fill="none" stroke="var(--accent)" stroke-width="3.5"/>
  <g stroke="var(--muted)" stroke-width="1.5" stroke-dasharray="4 4">
    <line x1="187" y1="250" x2="187" y2="240"/><line x1="55" y1="240" x2="187" y2="240"/>
    <line x1="253" y1="250" x2="253" y2="223"/><line x1="55" y1="223" x2="253" y2="223"/>
    <line x1="319" y1="250" x2="319" y2="183"/><line x1="55" y1="183" x2="319" y2="183"/>
  </g>
  <circle cx="187" cy="240" r="4" fill="var(--ok)"/>
  <circle cx="253" cy="223" r="4" fill="var(--ok)"/>
  <circle cx="319" cy="183" r="5" fill="var(--bad)"/>
  <text x="187" y="222" fill="var(--text)" font-size="12" text-anchor="middle">30° → ≈1.2 G</text>
  <text x="253" y="205" fill="var(--text)" font-size="12" text-anchor="middle">45° → ≈1.5 G</text>
  <text x="305" y="165" fill="var(--bad)" font-size="13" text-anchor="middle" font-weight="bold">60° → 2 G</text>
  <text x="345" y="70" fill="var(--bad)" font-size="12" text-anchor="middle">¡pasando 60°</text>
  <text x="345" y="85" fill="var(--bad)" font-size="12" text-anchor="middle">se dispara!</text>
</svg>
