<svg viewBox="0 0 480 320" xmlns="http://www.w3.org/2000/svg" role="img" aria-label="Rosa de vientos con norte verdadero y norte magnetico separados por la variacion Oeste">
  <defs>
    <marker id="ch16-var-arrow" viewBox="0 0 10 10" refX="8" refY="5" markerWidth="7" markerHeight="7" orient="auto-start-reverse">
      <path d="M0 0 L10 5 L0 10 L3 5 Z" fill="var(--accent)"/>
    </marker>
  </defs>
  <text x="16" y="26" fill="var(--text)" font-family="inherit" font-size="15" font-weight="bold">Los dos nortes</text>

  <!-- rosa -->
  <circle cx="175" cy="165" r="120" fill="var(--panel-2)" fill-opacity="0.35" stroke="var(--text)" stroke-width="1.25"/>
  <circle cx="175" cy="165" r="94" fill="none" stroke="var(--muted)" stroke-width="0.75" stroke-dasharray="2 4"/>
  <g stroke-linecap="round">
    <line x1="175" y1="45" x2="175" y2="57" stroke="var(--text)" stroke-width="1.4"/>
    <line x1="195.8" y1="46.8" x2="194.8" y2="52.7" stroke="var(--muted)" stroke-width="0.9"/>
    <line x1="216" y1="52.2" x2="214" y2="57.9" stroke="var(--muted)" stroke-width="0.9"/>
    <line x1="235" y1="61.1" x2="229" y2="71.5" stroke="var(--text)" stroke-width="1.4"/>
    <line x1="252.1" y1="73.1" x2="248.3" y2="77.7" stroke="var(--muted)" stroke-width="0.9"/>
    <line x1="266.9" y1="87.9" x2="262.3" y2="91.7" stroke="var(--muted)" stroke-width="0.9"/>
    <line x1="278.9" y1="105" x2="268.5" y2="111" stroke="var(--text)" stroke-width="1.4"/>
    <line x1="287.8" y1="124" x2="282.1" y2="126" stroke="var(--muted)" stroke-width="0.9"/>
    <line x1="293.2" y1="144.2" x2="287.3" y2="145.2" stroke="var(--muted)" stroke-width="0.9"/>
    <line x1="295" y1="165" x2="283" y2="165" stroke="var(--text)" stroke-width="1.4"/>
    <line x1="293.2" y1="185.8" x2="287.3" y2="184.8" stroke="var(--muted)" stroke-width="0.9"/>
    <line x1="287.8" y1="206" x2="282.1" y2="204" stroke="var(--muted)" stroke-width="0.9"/>
    <line x1="278.9" y1="225" x2="268.5" y2="219" stroke="var(--text)" stroke-width="1.4"/>
    <line x1="266.9" y1="242.1" x2="262.3" y2="238.3" stroke="var(--muted)" stroke-width="0.9"/>
    <line x1="252.1" y1="256.9" x2="248.3" y2="252.3" stroke="var(--muted)" stroke-width="0.9"/>
    <line x1="235" y1="268.9" x2="229" y2="258.5" stroke="var(--text)" stroke-width="1.4"/>
    <line x1="216" y1="277.8" x2="214" y2="272.1" stroke="var(--muted)" stroke-width="0.9"/>
    <line x1="195.8" y1="283.2" x2="194.8" y2="277.3" stroke="var(--muted)" stroke-width="0.9"/>
    <line x1="175" y1="285" x2="175" y2="273" stroke="var(--text)" stroke-width="1.4"/>
    <line x1="154.2" y1="283.2" x2="155.2" y2="277.3" stroke="var(--muted)" stroke-width="0.9"/>
    <line x1="134" y1="277.8" x2="136" y2="272.1" stroke="var(--muted)" stroke-width="0.9"/>
    <line x1="115" y1="268.9" x2="121" y2="258.5" stroke="var(--text)" stroke-width="1.4"/>
    <line x1="97.9" y1="256.9" x2="101.7" y2="252.3" stroke="var(--muted)" stroke-width="0.9"/>
    <line x1="83.1" y1="242.1" x2="87.7" y2="238.3" stroke="var(--muted)" stroke-width="0.9"/>
    <line x1="71.1" y1="225" x2="81.5" y2="219" stroke="var(--text)" stroke-width="1.4"/>
    <line x1="62.2" y1="206" x2="67.9" y2="204" stroke="var(--muted)" stroke-width="0.9"/>
    <line x1="56.8" y1="185.8" x2="62.7" y2="184.8" stroke="var(--muted)" stroke-width="0.9"/>
    <line x1="55" y1="165" x2="67" y2="165" stroke="var(--text)" stroke-width="1.4"/>
    <line x1="56.8" y1="144.2" x2="62.7" y2="145.2" stroke="var(--muted)" stroke-width="0.9"/>
    <line x1="62.2" y1="124" x2="67.9" y2="126" stroke="var(--muted)" stroke-width="0.9"/>
    <line x1="71.1" y1="105" x2="81.5" y2="111" stroke="var(--text)" stroke-width="1.4"/>
    <line x1="83.1" y1="87.9" x2="87.7" y2="91.7" stroke="var(--muted)" stroke-width="0.9"/>
    <line x1="97.9" y1="73.1" x2="101.7" y2="77.7" stroke="var(--muted)" stroke-width="0.9"/>
    <line x1="115" y1="61.1" x2="121" y2="71.5" stroke="var(--text)" stroke-width="1.4"/>
    <line x1="134" y1="52.2" x2="136" y2="57.9" stroke="var(--muted)" stroke-width="0.9"/>
    <line x1="154.2" y1="46.8" x2="155.2" y2="52.7" stroke="var(--muted)" stroke-width="0.9"/>
    
    <text x="175" y="72.5" fill="var(--muted)" font-family="inherit" font-size="10" text-anchor="middle">36</text>
    <text x="223" y="85.4" fill="var(--muted)" font-family="inherit" font-size="10" text-anchor="middle">3</text>
    <text x="258.1" y="120.5" fill="var(--muted)" font-family="inherit" font-size="10" text-anchor="middle">6</text>
    <text x="271" y="168.5" fill="var(--muted)" font-family="inherit" font-size="10" text-anchor="middle">9</text>
    <text x="258.1" y="216.5" fill="var(--muted)" font-family="inherit" font-size="10" text-anchor="middle">12</text>
    <text x="223" y="251.6" fill="var(--muted)" font-family="inherit" font-size="10" text-anchor="middle">15</text>
    <text x="175" y="264.5" fill="var(--muted)" font-family="inherit" font-size="10" text-anchor="middle">18</text>
    <text x="127" y="251.6" fill="var(--muted)" font-family="inherit" font-size="10" text-anchor="middle">21</text>
    <text x="91.9" y="216.5" fill="var(--muted)" font-family="inherit" font-size="10" text-anchor="middle">24</text>
    <text x="79" y="168.5" fill="var(--muted)" font-family="inherit" font-size="10" text-anchor="middle">27</text>
    <text x="91.9" y="120.5" fill="var(--muted)" font-family="inherit" font-size="10" text-anchor="middle">30</text>
    <text x="127" y="85.4" fill="var(--muted)" font-family="inherit" font-size="10" text-anchor="middle">33</text>
    
  </g>

  <!-- norte verdadero: recto arriba, con estrella -->
  <line x1="175" y1="165" x2="175" y2="75" stroke="var(--text)" stroke-width="2" stroke-linecap="round"/>
  <path d="M175 44 l6 14 l15 0 l-12 9 l5 15 l-14 -9 l-14 9 l5 -15 l-12 -9 l15 0 Z" fill="var(--text)"/>
  <text x="197" y="52" fill="var(--text)" font-family="inherit" font-size="12" font-weight="bold">Norte verdadero</text>
  <text x="197" y="66" fill="var(--muted)" font-family="inherit" font-size="11">meridianos del mapa</text>

  <!-- norte magnetico: inclinado al oeste (izquierda), ~15 grados para claridad -->
  <line x1="175" y1="165" x2="147.2" y2="79.4" stroke="var(--accent)" stroke-width="2" stroke-linecap="round" marker-end="url(#ch16-var-arrow)"/>
  <text x="18" y="52" fill="var(--accent)" font-family="inherit" font-size="12" font-weight="bold">Norte magnetico</text>
  <text x="18" y="66" fill="var(--muted)" font-family="inherit" font-size="11">lo ve tu brujula</text>

  <!-- arco de variacion -->
  <path d="M157.7 111.7 A 56 56 0 0 1 175 109" fill="none" stroke="var(--bad)" stroke-width="1.5"/>
  <text x="169" y="99" fill="var(--bad)" font-family="inherit" font-size="11" font-weight="bold" text-anchor="middle">var. O</text>
  <circle cx="175" cy="165" r="3" fill="var(--text)"/>

  <!-- panel de reglas -->
  <rect x="326" y="96" width="140" height="140" rx="10" fill="var(--panel-2)" fill-opacity="0.5" stroke="var(--muted)" stroke-width="1"/>
  <text x="342" y="120" fill="var(--text)" font-family="inherit" font-size="12" font-weight="bold">De verdadero</text>
  <text x="342" y="135" fill="var(--text)" font-family="inherit" font-size="12" font-weight="bold">a magnetico</text>
  <line x1="342" y1="146" x2="450" y2="146" stroke="var(--muted)" stroke-width="0.75"/>
  <text x="342" y="168" fill="var(--bad)" font-family="inherit" font-size="12" font-weight="bold">Oeste → suma</text>
  <text x="342" y="188" fill="var(--ok)" font-family="inherit" font-size="12" font-weight="bold">Este → resta</text>
  <text x="342" y="216" fill="var(--muted)" font-family="inherit" font-size="11">RM = RV + var O</text>
  <text x="342" y="230" fill="var(--muted)" font-family="inherit" font-size="10">Peru: ~1-3 grados O</text>

  <text x="16" y="306" fill="var(--muted)" font-family="inherit" font-size="11">La isogona de tu carta te da la variacion local. La brujula apunta al norte magnetico, no al del mapa.</text>
</svg>
