<svg viewBox="0 0 480 320" xmlns="http://www.w3.org/2000/svg" role="img" aria-label="Estacion VOR emitiendo 360 radiales, con un avion sobre el radial 090 al este">
  <defs>
    <marker id="ch16-vor-arrow" viewBox="0 0 10 10" refX="8" refY="5" markerWidth="7" markerHeight="7" orient="auto">
      <path d="M0 0 L10 5 L0 10 L3 5 Z" fill="var(--ok)"/>
    </marker>
  </defs>
  <text x="16" y="26" fill="var(--text)" font-family="inherit" font-size="15" font-weight="bold">El VOR: 360 radiales</text>

  <circle cx="200" cy="170" r="128" fill="var(--panel-2)" fill-opacity="0.3" stroke="var(--text)" stroke-width="1.25"/>
  <g>
    <line x1="200" y1="170" x2="262" y2="62.6" stroke="var(--muted)" stroke-width="0.6" stroke-opacity="0.5"/>
    <line x1="200" y1="170" x2="307.4" y2="108" stroke="var(--muted)" stroke-width="0.6" stroke-opacity="0.5"/>
    <line x1="200" y1="170" x2="307.4" y2="232" stroke="var(--muted)" stroke-width="0.6" stroke-opacity="0.5"/>
    <line x1="200" y1="170" x2="262" y2="277.4" stroke="var(--muted)" stroke-width="0.6" stroke-opacity="0.5"/>
    <line x1="200" y1="170" x2="138" y2="277.4" stroke="var(--muted)" stroke-width="0.6" stroke-opacity="0.5"/>
    <line x1="200" y1="170" x2="92.6" y2="232" stroke="var(--muted)" stroke-width="0.6" stroke-opacity="0.5"/>
    <line x1="200" y1="170" x2="92.6" y2="108" stroke="var(--muted)" stroke-width="0.6" stroke-opacity="0.5"/>
    <line x1="200" y1="170" x2="138" y2="62.6" stroke="var(--muted)" stroke-width="0.6" stroke-opacity="0.5"/>
    
  </g>
  <g stroke-linecap="round">
    <line x1="200" y1="42" x2="200" y2="54" stroke="var(--text)" stroke-width="1.4"/>
    <line x1="222.2" y1="43.9" x2="221.2" y2="49.9" stroke="var(--muted)" stroke-width="0.9"/>
    <line x1="243.8" y1="49.7" x2="241.7" y2="55.4" stroke="var(--muted)" stroke-width="0.9"/>
    <line x1="264" y1="59.1" x2="258" y2="69.5" stroke="var(--text)" stroke-width="1.4"/>
    <line x1="282.3" y1="71.9" x2="278.4" y2="76.5" stroke="var(--muted)" stroke-width="0.9"/>
    <line x1="298.1" y1="87.7" x2="293.5" y2="91.6" stroke="var(--muted)" stroke-width="0.9"/>
    <line x1="310.9" y1="106" x2="300.5" y2="112" stroke="var(--text)" stroke-width="1.4"/>
    <line x1="320.3" y1="126.2" x2="314.6" y2="128.3" stroke="var(--muted)" stroke-width="0.9"/>
    <line x1="326.1" y1="147.8" x2="320.1" y2="148.8" stroke="var(--muted)" stroke-width="0.9"/>
    <line x1="328" y1="170" x2="316" y2="170" stroke="var(--text)" stroke-width="1.4"/>
    <line x1="326.1" y1="192.2" x2="320.1" y2="191.2" stroke="var(--muted)" stroke-width="0.9"/>
    <line x1="320.3" y1="213.8" x2="314.6" y2="211.7" stroke="var(--muted)" stroke-width="0.9"/>
    <line x1="310.9" y1="234" x2="300.5" y2="228" stroke="var(--text)" stroke-width="1.4"/>
    <line x1="298.1" y1="252.3" x2="293.5" y2="248.4" stroke="var(--muted)" stroke-width="0.9"/>
    <line x1="282.3" y1="268.1" x2="278.4" y2="263.5" stroke="var(--muted)" stroke-width="0.9"/>
    <line x1="264" y1="280.9" x2="258" y2="270.5" stroke="var(--text)" stroke-width="1.4"/>
    <line x1="243.8" y1="290.3" x2="241.7" y2="284.6" stroke="var(--muted)" stroke-width="0.9"/>
    <line x1="222.2" y1="296.1" x2="221.2" y2="290.1" stroke="var(--muted)" stroke-width="0.9"/>
    <line x1="200" y1="298" x2="200" y2="286" stroke="var(--text)" stroke-width="1.4"/>
    <line x1="177.8" y1="296.1" x2="178.8" y2="290.1" stroke="var(--muted)" stroke-width="0.9"/>
    <line x1="156.2" y1="290.3" x2="158.3" y2="284.6" stroke="var(--muted)" stroke-width="0.9"/>
    <line x1="136" y1="280.9" x2="142" y2="270.5" stroke="var(--text)" stroke-width="1.4"/>
    <line x1="117.7" y1="268.1" x2="121.6" y2="263.5" stroke="var(--muted)" stroke-width="0.9"/>
    <line x1="101.9" y1="252.3" x2="106.5" y2="248.4" stroke="var(--muted)" stroke-width="0.9"/>
    <line x1="89.1" y1="234" x2="99.5" y2="228" stroke="var(--text)" stroke-width="1.4"/>
    <line x1="79.7" y1="213.8" x2="85.4" y2="211.7" stroke="var(--muted)" stroke-width="0.9"/>
    <line x1="73.9" y1="192.2" x2="79.9" y2="191.2" stroke="var(--muted)" stroke-width="0.9"/>
    <line x1="72" y1="170" x2="84" y2="170" stroke="var(--text)" stroke-width="1.4"/>
    <line x1="73.9" y1="147.8" x2="79.9" y2="148.8" stroke="var(--muted)" stroke-width="0.9"/>
    <line x1="79.7" y1="126.2" x2="85.4" y2="128.3" stroke="var(--muted)" stroke-width="0.9"/>
    <line x1="89.1" y1="106" x2="99.5" y2="112" stroke="var(--text)" stroke-width="1.4"/>
    <line x1="101.9" y1="87.7" x2="106.5" y2="91.6" stroke="var(--muted)" stroke-width="0.9"/>
    <line x1="117.7" y1="71.9" x2="121.6" y2="76.5" stroke="var(--muted)" stroke-width="0.9"/>
    <line x1="136" y1="59.1" x2="142" y2="69.5" stroke="var(--text)" stroke-width="1.4"/>
    <line x1="156.2" y1="49.7" x2="158.3" y2="55.4" stroke="var(--muted)" stroke-width="0.9"/>
    <line x1="177.8" y1="43.9" x2="178.8" y2="49.9" stroke="var(--muted)" stroke-width="0.9"/>
    
    <text x="200" y="67.5" fill="var(--muted)" font-family="inherit" font-size="10" text-anchor="middle">36</text>
    <text x="253" y="81.7" fill="var(--muted)" font-family="inherit" font-size="10" text-anchor="middle">3</text>
    <text x="291.8" y="120.5" fill="var(--muted)" font-family="inherit" font-size="10" text-anchor="middle">6</text>
    <text x="306" y="173.5" fill="var(--muted)" font-family="inherit" font-size="10" text-anchor="middle">9</text>
    <text x="291.8" y="226.5" fill="var(--muted)" font-family="inherit" font-size="10" text-anchor="middle">12</text>
    <text x="253" y="265.3" fill="var(--muted)" font-family="inherit" font-size="10" text-anchor="middle">15</text>
    <text x="200" y="279.5" fill="var(--muted)" font-family="inherit" font-size="10" text-anchor="middle">18</text>
    <text x="147" y="265.3" fill="var(--muted)" font-family="inherit" font-size="10" text-anchor="middle">21</text>
    <text x="108.2" y="226.5" fill="var(--muted)" font-family="inherit" font-size="10" text-anchor="middle">24</text>
    <text x="94" y="173.5" fill="var(--muted)" font-family="inherit" font-size="10" text-anchor="middle">27</text>
    <text x="108.2" y="120.5" fill="var(--muted)" font-family="inherit" font-size="10" text-anchor="middle">30</text>
    <text x="147" y="81.7" fill="var(--muted)" font-family="inherit" font-size="10" text-anchor="middle">33</text>
    
  </g>

  <!-- radiales cardinales -->
  <line x1="200" y1="170" x2="200" y2="46" stroke="var(--accent)" stroke-width="1.8" stroke-linecap="round"/><line x1="200" y1="170" x2="324" y2="170" stroke="var(--accent)" stroke-width="2.2" stroke-linecap="round"/><line x1="200" y1="170" x2="200" y2="294" stroke="var(--accent)" stroke-width="1.8" stroke-linecap="round"/><line x1="200" y1="170" x2="76" y2="170" stroke="var(--accent)" stroke-width="1.8" stroke-linecap="round"/>
  <text x="200" y="74" fill="var(--accent)" font-family="inherit" font-size="11" text-anchor="middle" font-weight="bold">R-360</text>
  <text x="270" y="164" fill="var(--accent)" font-family="inherit" font-size="11" text-anchor="middle" font-weight="bold">R-090</text>
  <text x="200" y="274" fill="var(--accent)" font-family="inherit" font-size="11" text-anchor="middle" font-weight="bold">R-180</text>
  <text x="128" y="164" fill="var(--accent)" font-family="inherit" font-size="11" text-anchor="middle" font-weight="bold">R-270</text>

  <!-- estacion VOR: hexagono compass rose -->
  <path d="M200 154 L214 162 L214 178 L200 186 L186 178 L186 162 Z" fill="var(--panel-2)" stroke="var(--text)" stroke-width="1.5"/>
  <circle cx="200" cy="170" r="2.5" fill="var(--text)"/>

  <!-- avion sobre R-090 (al este), apuntando en cualquier direccion -->
  <g transform="translate(320 170) rotate(35)">
    <path d="M0 -11 C1.6 -11 2.4 -8 2.4 -4 L11 1.5 L11 4 L2.4 1.5 L2 8 L5 10.5 L5 12 L0 10.8 L-5 12 L-5 10.5 L-2 8 L-2.4 1.5 L-11 4 L-11 1.5 L-2.4 -4 C-2.4 -8 -1.6 -11 0 -11 Z" fill="var(--ok)" stroke="var(--ok)" stroke-width="0.5" stroke-linejoin="round"/>
  </g>
  <line x1="326" y1="144" x2="345" y2="96" stroke="var(--muted)" stroke-width="1"/>
  <circle cx="326" cy="144" r="2.5" fill="var(--muted)"/>
  <text x="350" y="92" fill="var(--ok)" font-family="inherit" font-size="12" font-weight="bold">Radial 090</text>
  <text x="350" y="107" fill="var(--muted)" font-family="inherit" font-size="11">= al ESTE del VOR,</text>
  <text x="350" y="120" fill="var(--muted)" font-family="inherit" font-size="11">apunte donde apunte</text>
  <text x="350" y="133" fill="var(--muted)" font-family="inherit" font-size="11">la nariz.</text>

  <text x="16" y="308" fill="var(--muted)" font-family="inherit" font-size="11">El radial se nombra por su rumbo magnetico DESDE la estacion (FROM).</text>
</svg>
